<svg version="1.1" id="Layer_1" xmlns="http://www.w3.org/2000/svg" xmlns:xlink="http://www.w3.org/1999/xlink" x="0px" y="0px"
	 width="100%" viewBox="0 0 600 600" enable-background="new 0 0 600 600" xml:space="preserve">
<path fill="#000000" opacity="1.000000" stroke="none" 
	d="
M331.000000,601.000000 
	C221.043060,601.000000 111.086128,601.000000 1.064595,601.000000 
	C1.064595,401.121368 1.064595,201.242722 1.064595,1.000000 
	C58.355465,1.000000 115.711700,1.000000 173.871887,1.230198 
	C169.514420,7.076082 164.188995,12.551016 159.224716,18.335865 
	C147.833862,31.609581 135.740738,44.398136 125.507820,58.524620 
	C100.940178,92.440079 83.048286,129.794464 71.541603,170.124725 
	C70.098618,175.182297 68.948402,180.323380 67.541779,185.904968 
	C83.795769,185.904968 98.919327,185.904968 114.026855,186.380829 
	C114.010834,196.784134 114.010834,206.711563 114.010834,216.559311 
	C138.403809,216.559311 162.100021,216.559311 185.642975,216.559311 
	C185.642975,206.196869 185.642975,196.277924 185.642975,186.046799 
	C161.491989,186.046799 137.696396,186.046799 113.942184,185.647888 
	C125.491699,141.522263 147.531601,103.356987 175.489502,67.800949 
	C176.706863,69.497375 177.509293,70.744064 178.437134,71.889122 
	C191.238892,87.687782 202.015991,104.803673 211.269165,122.871872 
	C212.215622,124.719978 212.319733,127.592476 211.633957,129.582794 
	C208.328079,139.177444 204.339218,148.539917 201.131363,158.164291 
	C198.126236,167.180374 195.796066,176.421417 193.088104,185.844482 
	C223.589340,185.844482 253.057983,185.844482 283.963837,185.844482 
	C277.534790,166.952148 271.206818,148.665710 265.184479,130.279144 
	C264.408051,127.908646 264.272644,124.469017 265.444519,122.460762 
	C272.391815,110.555206 279.599548,98.786293 287.157501,87.258461 
	C291.339478,80.879829 296.374084,75.060196 301.204132,68.753838 
	C301.877014,69.886055 302.075897,70.353592 302.387878,70.726524 
	C316.392792,87.467331 327.950226,105.803986 337.544525,125.361137 
	C338.606903,127.526772 338.605225,130.830307 337.823059,133.182434 
	C333.580627,145.939804 328.824005,158.525314 324.492950,171.254547 
	C322.928436,175.852875 322.053467,180.685822 320.776276,185.759460 
	C350.110352,185.759460 378.872833,185.759460 407.741913,185.759460 
	C407.741913,184.714981 407.944427,183.847565 407.712219,183.118637 
	C402.479431,166.692261 397.333832,150.235504 391.815155,133.905014 
	C390.694305,130.588242 390.128845,127.873016 392.024933,124.767014 
	C397.765625,115.363106 403.098755,105.697884 409.128387,96.486458 
	C414.920624,87.637695 421.384277,79.228416 428.067535,69.908295 
	C431.850861,74.956161 435.000031,79.120964 438.110687,83.314377 
	C455.561188,106.838814 469.287384,132.399368 479.323456,159.885437 
	C482.438202,168.415833 484.546082,177.313889 486.637390,186.027496 
	C462.569183,186.011383 438.978516,186.011383 415.263428,186.011383 
	C415.263428,196.610352 415.263428,206.528778 415.263428,216.645813 
	C439.228058,216.645813 462.928070,216.645813 486.955109,216.645813 
	C486.955109,206.158188 486.955109,196.020981 487.416382,185.769043 
	C503.478119,185.654312 519.078613,185.654312 534.970459,185.654312 
	C526.649963,150.590042 513.399902,117.764557 495.308685,86.916359 
	C477.061249,55.801758 454.614319,28.067774 427.718933,3.699854 
	C404.482452,27.300318 382.672119,51.561619 365.478333,79.788025 
	C364.822662,79.189384 364.100647,78.720108 363.627136,78.069862 
	C353.760223,64.519836 344.517609,50.459881 333.900818,37.527527 
	C324.279968,25.808296 313.222412,15.259768 302.590912,4.398044 
	C301.860992,3.652326 298.788727,3.968222 297.846558,4.873528 
	C293.672333,8.884471 289.881866,13.294437 285.945801,17.553785 
	C280.880188,23.035501 275.414001,28.201551 270.817047,34.051090 
	C259.647034,48.264736 248.879593,62.794788 238.702698,76.205490 
	C227.082169,61.233994 215.198196,45.255302 202.556076,29.900822 
	C195.634445,21.494158 187.394424,14.178047 179.839218,6.283732 
	C178.347656,4.725220 177.269043,2.771476 176.000000,1.000000 
	C317.611053,1.000000 459.222076,1.000000 600.916565,1.000000 
	C600.916565,200.999985 600.916565,401.000000 600.909668,601.000000 
	C575.912537,601.000000 550.922302,601.000000 525.223267,600.660156 
	C527.115906,594.292786 529.681213,588.249390 532.328125,582.242004 
	C535.539001,574.954529 538.818665,567.697327 542.090637,560.377625 
	C511.241608,545.961060 483.523651,527.937500 458.765594,505.068665 
	C459.997375,503.339478 460.945496,501.784637 462.107513,500.410797 
	C479.431671,479.928467 493.885040,457.542938 506.053223,433.683716 
	C517.057495,412.106628 525.637085,389.572388 532.049683,366.203491 
	C539.839111,337.816650 544.143188,308.898834 544.896790,279.505493 
	C545.185181,268.256500 544.499268,256.969971 543.942139,245.716156 
	C543.542664,237.647095 542.662598,229.599869 541.903748,221.551697 
	C541.673035,219.105255 540.402283,217.918121 537.637695,217.945663 
	C524.140564,218.080200 510.641541,218.010880 497.143219,218.039978 
	C496.511047,218.041336 495.879395,218.294586 495.345367,218.409485 
	C508.895905,312.548279 486.131775,396.651154 427.568024,471.216522 
	C426.549133,470.710297 426.144745,470.644653 425.987640,470.412018 
	C415.955139,455.554321 405.643066,440.872498 396.064697,425.726776 
	C391.775360,418.944275 387.432190,412.352417 391.790680,402.703766 
	C401.961182,380.188721 408.562927,356.360931 411.969147,331.860382 
	C414.556183,313.252319 417.132294,294.517914 417.649078,275.782776 
	C418.144592,257.816833 415.931152,239.780075 415.033447,221.768204 
	C414.873962,218.568375 413.273254,217.940689 410.527008,217.970413 
	C402.362244,218.058762 394.195892,218.000092 386.030182,217.999420 
	C380.113220,217.998932 374.196259,217.999298 368.287933,217.999298 
	C374.373383,259.109100 373.523956,299.246857 363.732361,339.019897 
	C354.654724,298.954102 353.597595,258.703613 360.636078,218.296661 
	C344.940643,218.296661 329.669708,218.296661 313.576233,218.296661 
	C312.374664,235.621155 310.677124,252.692169 310.188507,269.797699 
	C309.873474,280.826691 311.059814,291.931335 312.070923,302.956421 
	C313.120850,314.404968 314.163818,325.912445 316.282104,337.192780 
	C320.888824,361.724487 327.699890,385.673187 337.248505,408.800354 
	C337.834167,410.218811 337.734161,412.550354 336.935913,413.814880 
	C326.504242,430.339844 315.919556,446.768799 305.283813,463.163818 
	C303.832336,465.401306 301.896118,467.324341 300.218323,469.351898 
	C299.278381,468.654449 298.961151,468.499420 298.752258,468.252655 
	C284.636261,451.579315 273.065887,433.238892 263.404907,413.693695 
	C262.697083,412.261719 263.390869,409.868652 263.980286,408.105316 
	C269.896698,390.404694 277.396637,373.079224 281.546478,354.982178 
	C286.487976,333.432953 289.901398,311.329529 291.550873,289.284698 
	C293.312958,265.735229 292.846436,241.944397 288.467316,218.357635 
	C273.353302,218.357635 258.296814,218.357635 242.733429,218.357635 
	C249.480042,260.133606 247.484650,301.155182 237.453705,343.047180 
	C227.604050,301.015961 226.555115,259.904633 233.163834,218.258972 
	C217.507645,218.258972 202.574875,218.258972 186.571030,218.258972 
	C185.379608,233.189194 183.897705,248.072098 183.126160,262.991760 
	C182.743195,270.397400 183.372681,277.897522 184.057526,285.307495 
	C185.510666,301.030396 186.873703,316.781525 189.046860,332.413574 
	C192.754761,359.085297 201.046188,384.523254 211.043381,409.446838 
	C211.560989,410.737244 211.574661,412.749878 210.915131,413.910309 
	C205.552887,423.344727 200.308807,432.875336 194.367996,441.943787 
	C188.279816,451.237152 181.445099,460.041473 174.520538,469.637146 
	C114.915314,395.178650 93.204247,311.427063 106.433372,218.339233 
	C91.142647,218.339233 76.213844,218.339233 61.174221,218.339233 
	C54.599743,269.678009 57.590710,319.934570 71.900223,369.518311 
	C86.148056,418.888275 109.937286,463.062988 142.491943,502.527618 
	C117.779045,524.964111 90.206642,542.931458 59.670727,556.819580 
	C65.507736,569.645630 71.203514,582.028931 76.759598,594.474548 
	C77.964493,597.173523 79.351784,597.251892 81.806091,596.083252 
	C106.563095,584.294006 130.093124,570.486633 151.785889,553.663635 
	C159.289963,547.844177 166.606934,541.783325 174.069000,535.784851 
	C180.919266,541.617798 187.521118,547.239319 194.422760,553.116028 
	C192.606857,554.090515 191.403183,555.101257 190.043350,555.399170 
	C185.554550,556.382751 185.686646,558.404602 187.454727,562.148132 
	C192.575394,572.990051 197.250641,584.043640 202.019424,595.049377 
	C203.247284,597.883118 204.600967,598.734924 207.656570,597.072632 
	C216.072327,592.494507 224.737411,588.374390 233.148544,583.788208 
	C235.952118,582.259583 238.060623,582.384644 240.803925,583.876892 
	C249.184006,588.435364 257.795868,592.567200 266.183960,597.111633 
	C269.300079,598.799866 270.894470,598.742371 272.480713,595.138916 
	C277.842957,582.957520 283.552063,570.928711 289.288422,558.495178 
	C286.017456,556.665039 282.959473,554.954163 279.683258,553.121155 
	C286.600708,547.279602 293.103638,541.788147 299.480316,536.403259 
	C306.675079,542.488403 313.733490,548.458252 321.211029,554.782532 
	C318.289093,556.255615 315.705566,557.558044 312.527832,559.160095 
	C314.953583,564.615967 317.351044,569.973572 319.719757,575.343750 
	C323.489899,583.891357 327.240906,592.447510 331.000000,601.000000 
M177.302872,125.186050 
	C168.516449,124.562721 161.701035,127.939125 157.559494,135.715485 
	C153.856583,142.668213 154.334137,149.786362 158.424118,156.513550 
	C163.182953,164.340912 173.387573,167.792358 182.397507,164.792755 
	C192.288437,161.499847 197.792465,152.897217 196.724442,142.400238 
	C195.831192,133.621246 188.394730,126.719345 177.302872,125.186050 
M418.333588,164.481720 
	C428.214050,167.391754 437.561493,165.118561 442.274048,158.659637 
	C448.086365,150.693436 448.285767,141.464508 442.791992,133.157578 
	C435.895081,122.729027 418.189362,122.377541 410.815674,132.621353 
	C403.262268,143.114914 406.213074,157.644913 418.333588,164.481720 
M317.635620,158.091629 
	C318.004791,157.545639 318.389221,157.009277 318.740845,156.452225 
	C324.003326,148.115311 322.493347,136.657852 315.277863,130.142365 
	C308.643280,124.151451 296.855682,123.465027 290.462280,128.248627 
	C280.684296,135.564545 280.271790,147.945099 284.289001,155.323090 
	C291.205017,168.025070 306.881622,169.588760 317.635620,158.091629 
M304.456024,217.000046 
	C307.543457,217.000046 310.630890,217.000046 313.697876,217.000046 
	C313.697876,206.303757 313.697876,196.389221 313.697876,186.393982 
	C305.356262,186.393982 297.322266,186.393982 289.304718,186.393982 
	C289.304718,196.704208 289.304718,206.618988 289.304718,217.000046 
	C294.223114,217.000046 298.847961,217.000046 304.456024,217.000046 
z"/>
<path fill="#355BB7" opacity="1.000000" stroke="none" 
	d="
M331.333313,601.000000 
	C327.240906,592.447510 323.489899,583.891357 319.719757,575.343750 
	C317.351044,569.973572 314.953583,564.615967 312.527832,559.160095 
	C315.705566,557.558044 318.289093,556.255615 321.211029,554.782532 
	C313.733490,548.458252 306.675079,542.488403 299.480316,536.403259 
	C293.103638,541.788147 286.600708,547.279602 279.683258,553.121155 
	C282.959473,554.954163 286.017456,556.665039 289.288422,558.495178 
	C283.552063,570.928711 277.842957,582.957520 272.480713,595.138916 
	C270.894470,598.742371 269.300079,598.799866 266.183960,597.111633 
	C257.795868,592.567200 249.184006,588.435364 240.803925,583.876892 
	C238.060623,582.384644 235.952118,582.259583 233.148544,583.788208 
	C224.737411,588.374390 216.072327,592.494507 207.656570,597.072632 
	C204.600967,598.734924 203.247284,597.883118 202.019424,595.049377 
	C197.250641,584.043640 192.575394,572.990051 187.454727,562.148132 
	C185.686646,558.404602 185.554550,556.382751 190.043350,555.399170 
	C191.403183,555.101257 192.606857,554.090515 194.422760,553.116028 
	C187.521118,547.239319 180.919266,541.617798 174.069000,535.784851 
	C166.606934,541.783325 159.289963,547.844177 151.785889,553.663635 
	C130.093124,570.486633 106.563095,584.294006 81.806091,596.083252 
	C79.351784,597.251892 77.964493,597.173523 76.759598,594.474548 
	C71.203514,582.028931 65.507736,569.645630 59.670727,556.819580 
	C90.206642,542.931458 117.779045,524.964111 142.491943,502.527618 
	C109.937286,463.062988 86.148056,418.888275 71.900223,369.518311 
	C57.590710,319.934570 54.599743,269.678009 61.174221,218.339233 
	C76.213844,218.339233 91.142647,218.339233 106.433372,218.339233 
	C93.204247,311.427063 114.915314,395.178650 174.520538,469.637146 
	C181.445099,460.041473 188.279816,451.237152 194.367996,441.943787 
	C200.308807,432.875336 205.552887,423.344727 210.915131,413.910309 
	C211.574661,412.749878 211.560989,410.737244 211.043381,409.446838 
	C201.046188,384.523254 192.754761,359.085297 189.046860,332.413574 
	C186.873703,316.781525 185.510666,301.030396 184.057526,285.307495 
	C183.372681,277.897522 182.743195,270.397400 183.126160,262.991760 
	C183.897705,248.072098 185.379608,233.189194 186.571030,218.258972 
	C202.574875,218.258972 217.507645,218.258972 233.163834,218.258972 
	C226.555115,259.904633 227.604050,301.015961 237.453705,343.047180 
	C247.484650,301.155182 249.480042,260.133606 242.733429,218.357635 
	C258.296814,218.357635 273.353302,218.357635 288.467316,218.357635 
	C292.846436,241.944397 293.312958,265.735229 291.550873,289.284698 
	C289.901398,311.329529 286.487976,333.432953 281.546478,354.982178 
	C277.396637,373.079224 269.896698,390.404694 263.980286,408.105316 
	C263.390869,409.868652 262.697083,412.261719 263.404907,413.693695 
	C273.065887,433.238892 284.636261,451.579315 298.752258,468.252655 
	C298.961151,468.499420 299.278381,468.654449 300.218323,469.351898 
	C301.896118,467.324341 303.832336,465.401306 305.283813,463.163818 
	C315.919556,446.768799 326.504242,430.339844 336.935913,413.814880 
	C337.734161,412.550354 337.834167,410.218811 337.248505,408.800354 
	C327.699890,385.673187 320.888824,361.724487 316.282104,337.192780 
	C314.163818,325.912445 313.120850,314.404968 312.070923,302.956421 
	C311.059814,291.931335 309.873474,280.826691 310.188507,269.797699 
	C310.677124,252.692169 312.374664,235.621155 313.576233,218.296661 
	C329.669708,218.296661 344.940643,218.296661 360.636078,218.296661 
	C353.597595,258.703613 354.654724,298.954102 363.732361,339.019897 
	C373.523956,299.246857 374.373383,259.109100 368.287933,217.999298 
	C374.196259,217.999298 380.113220,217.998932 386.030182,217.999420 
	C394.195892,218.000092 402.362244,218.058762 410.527008,217.970413 
	C413.273254,217.940689 414.873962,218.568375 415.033447,221.768204 
	C415.931152,239.780075 418.144592,257.816833 417.649078,275.782776 
	C417.132294,294.517914 414.556183,313.252319 411.969147,331.860382 
	C408.562927,356.360931 401.961182,380.188721 391.790680,402.703766 
	C387.432190,412.352417 391.775360,418.944275 396.064697,425.726776 
	C405.643066,440.872498 415.955139,455.554321 425.987640,470.412018 
	C426.144745,470.644653 426.549133,470.710297 427.568024,471.216522 
	C486.131775,396.651154 508.895905,312.548279 495.345367,218.409485 
	C495.879395,218.294586 496.511047,218.041336 497.143219,218.039978 
	C510.641541,218.010880 524.140564,218.080200 537.637695,217.945663 
	C540.402283,217.918121 541.673035,219.105255 541.903748,221.551697 
	C542.662598,229.599869 543.542664,237.647095 543.942139,245.716156 
	C544.499268,256.969971 545.185181,268.256500 544.896790,279.505493 
	C544.143188,308.898834 539.839111,337.816650 532.049683,366.203491 
	C525.637085,389.572388 517.057495,412.106628 506.053223,433.683716 
	C493.885040,457.542938 479.431671,479.928467 462.107513,500.410797 
	C460.945496,501.784637 459.997375,503.339478 458.765594,505.068665 
	C483.523651,527.937500 511.241608,545.961060 542.090637,560.377625 
	C538.818665,567.697327 535.539001,574.954529 532.328125,582.242004 
	C529.681213,588.249390 527.115906,594.292786 524.757202,600.660156 
	C523.285645,601.000000 521.571289,601.000000 519.695068,600.693604 
	C518.487610,599.623596 517.515076,598.723938 516.385071,598.117859 
	C506.546570,592.841431 496.265808,588.259766 486.916718,582.230652 
	C472.189697,572.733459 457.973145,562.426147 443.767090,552.148621 
	C437.793488,547.826904 432.397644,542.706665 426.641937,537.867737 
	C420.062927,543.437561 413.588379,548.918884 406.770630,554.690735 
	C409.777832,556.368774 412.179993,557.709167 414.879028,559.215210 
	C409.236694,571.783752 403.659027,584.131897 398.159943,596.514954 
	C396.887878,599.379395 395.102234,599.524963 392.585449,598.212524 
	C384.427277,593.958313 376.282990,589.669006 368.000366,585.668579 
	C366.172333,584.785583 363.376556,584.141418 361.743500,584.910278 
	C352.221802,589.393677 342.905518,594.315125 333.561432,599.168640 
	C333.164368,599.374878 333.177826,600.371582 333.000000,601.000000 
	C332.555542,601.000000 332.111115,601.000000 331.333313,601.000000 
M374.695099,477.825928 
	C370.918518,472.139130 367.141937,466.452301 363.423584,460.853180 
	C352.764954,475.402740 342.445953,489.488678 331.587860,504.310516 
	C341.482666,512.139160 351.399292,520.116272 361.530334,527.811096 
	C362.623291,528.641174 365.489471,528.537415 366.636688,527.674744 
	C376.248016,520.447205 385.649689,512.940857 395.288300,505.382202 
	C388.210327,495.967773 381.628479,487.213287 374.695099,477.825928 
M229.892487,471.315186 
	C222.012070,481.647369 214.131668,491.979553 205.666946,503.077850 
	C215.983994,511.535492 226.285843,519.980713 236.980896,528.748230 
	C247.807816,520.106262 258.153412,511.848572 267.970551,504.012634 
	C257.178223,489.116364 247.007233,475.077698 236.658646,460.793915 
	C234.398560,464.150269 232.225372,467.377563 229.892487,471.315186 
z"/>
<path fill="#355BB7" opacity="1.000000" stroke="none" 
	d="
M175.666672,1.000000 
	C177.269043,2.771476 178.347656,4.725220 179.839218,6.283732 
	C187.394424,14.178047 195.634445,21.494158 202.556076,29.900822 
	C215.198196,45.255302 227.082169,61.233994 238.702698,76.205490 
	C248.879593,62.794788 259.647034,48.264736 270.817047,34.051090 
	C275.414001,28.201551 280.880188,23.035501 285.945801,17.553785 
	C289.881866,13.294437 293.672333,8.884471 297.846558,4.873528 
	C298.788727,3.968222 301.860992,3.652326 302.590912,4.398044 
	C313.222412,15.259768 324.279968,25.808296 333.900818,37.527527 
	C344.517609,50.459881 353.760223,64.519836 363.627136,78.069862 
	C364.100647,78.720108 364.822662,79.189384 365.478333,79.788025 
	C382.672119,51.561619 404.482452,27.300318 427.718933,3.699854 
	C454.614319,28.067774 477.061249,55.801758 495.308685,86.916359 
	C513.399902,117.764557 526.649963,150.590042 534.970459,185.654312 
	C519.078613,185.654312 503.478119,185.654312 487.454346,185.810989 
	C487.031006,185.967667 487.114899,186.043625 487.114929,186.043625 
	C484.546082,177.313889 482.438202,168.415833 479.323456,159.885437 
	C469.287384,132.399368 455.561188,106.838814 438.110687,83.314377 
	C435.000031,79.120964 431.850861,74.956161 428.067535,69.908295 
	C421.384277,79.228416 414.920624,87.637695 409.128387,96.486458 
	C403.098755,105.697884 397.765625,115.363106 392.024933,124.767014 
	C390.128845,127.873016 390.694305,130.588242 391.815155,133.905014 
	C397.333832,150.235504 402.479431,166.692261 407.712219,183.118637 
	C407.944427,183.847565 407.741913,184.714981 407.741913,185.759460 
	C378.872833,185.759460 350.110352,185.759460 320.776276,185.759460 
	C322.053467,180.685822 322.928436,175.852875 324.492950,171.254547 
	C328.824005,158.525314 333.580627,145.939804 337.823059,133.182434 
	C338.605225,130.830307 338.606903,127.526772 337.544525,125.361137 
	C327.950226,105.803986 316.392792,87.467331 302.387878,70.726524 
	C302.075897,70.353592 301.877014,69.886055 301.204132,68.753838 
	C296.374084,75.060196 291.339478,80.879829 287.157501,87.258461 
	C279.599548,98.786293 272.391815,110.555206 265.444519,122.460762 
	C264.272644,124.469017 264.408051,127.908646 265.184479,130.279144 
	C271.206818,148.665710 277.534790,166.952148 283.963837,185.844482 
	C253.057983,185.844482 223.589340,185.844482 193.088104,185.844482 
	C195.796066,176.421417 198.126236,167.180374 201.131363,158.164291 
	C204.339218,148.539917 208.328079,139.177444 211.633957,129.582794 
	C212.319733,127.592476 212.215622,124.719978 211.269165,122.871872 
	C202.015991,104.803673 191.238892,87.687782 178.437134,71.889122 
	C177.509293,70.744064 176.706863,69.497375 175.489502,67.800949 
	C147.531601,103.356987 125.491699,141.522263 113.979202,185.613922 
	C113.974823,185.978882 114.042877,185.904968 114.042877,185.904968 
	C98.919327,185.904968 83.795769,185.904968 67.541779,185.904968 
	C68.948402,180.323380 70.098618,175.182297 71.541603,170.124725 
	C83.048286,129.794464 100.940178,92.440079 125.507820,58.524620 
	C135.740738,44.398136 147.833862,31.609581 159.224716,18.335865 
	C164.188995,12.551016 169.514420,7.076082 174.337921,1.230198 
	C174.444443,1.000000 174.888901,1.000000 175.666672,1.000000 
z"/>
<path fill="#000000" opacity="1.000000" stroke="none" 
	d="
M333.468689,601.000000 
	C333.177826,600.371582 333.164368,599.374878 333.561432,599.168640 
	C342.905518,594.315125 352.221802,589.393677 361.743500,584.910278 
	C363.376556,584.141418 366.172333,584.785583 368.000366,585.668579 
	C376.282990,589.669006 384.427277,593.958313 392.585449,598.212524 
	C395.102234,599.524963 396.887878,599.379395 398.159943,596.514954 
	C403.659027,584.131897 409.236694,571.783752 414.879028,559.215210 
	C412.179993,557.709167 409.777832,556.368774 406.770630,554.690735 
	C413.588379,548.918884 420.062927,543.437561 426.641937,537.867737 
	C432.397644,542.706665 437.793488,547.826904 443.767090,552.148621 
	C457.973145,562.426147 472.189697,572.733459 486.916718,582.230652 
	C496.265808,588.259766 506.546570,592.841431 516.385071,598.117859 
	C517.515076,598.723938 518.487610,599.623596 519.266602,600.693604 
	C457.312439,601.000000 395.624878,601.000000 333.468689,601.000000 
z"/>
<path fill="#355BB7" opacity="1.000000" stroke="none" 
	d="
M113.937805,186.012848 
	C137.696396,186.046799 161.491989,186.046799 185.642975,186.046799 
	C185.642975,196.277924 185.642975,206.196869 185.642975,216.559311 
	C162.100021,216.559311 138.403809,216.559311 114.010834,216.559311 
	C114.010834,206.711563 114.010834,196.784134 114.026855,186.380829 
	C114.042877,185.904968 113.974823,185.978882 113.937805,186.012848 
z"/>
<path fill="#355BB7" opacity="1.000000" stroke="none" 
	d="
M486.993042,185.925720 
	C486.955109,196.020981 486.955109,206.158188 486.955109,216.645813 
	C462.928070,216.645813 439.228058,216.645813 415.263428,216.645813 
	C415.263428,206.528778 415.263428,196.610352 415.263428,186.011383 
	C438.978516,186.011383 462.569183,186.011383 486.637360,186.027496 
	C487.114899,186.043625 487.031006,185.967667 486.993042,185.925720 
z"/>
<path fill="#3154AA" opacity="1.000000" stroke="none" 
	d="
M177.742432,125.188385 
	C188.394730,126.719345 195.831192,133.621246 196.724442,142.400238 
	C197.792465,152.897217 192.288437,161.499847 182.397507,164.792755 
	C173.387573,167.792358 163.182953,164.340912 158.424118,156.513550 
	C154.334137,149.786362 153.856583,142.668213 157.559494,135.715485 
	C161.701035,127.939125 168.516449,124.562721 177.742432,125.188385 
z"/>
<path fill="#3154A9" opacity="1.000000" stroke="none" 
	d="
M418.020142,164.251572 
	C406.213074,157.644913 403.262268,143.114914 410.815674,132.621353 
	C418.189362,122.377541 435.895081,122.729027 442.791992,133.157578 
	C448.285767,141.464508 448.086365,150.693436 442.274048,158.659637 
	C437.561493,165.118561 428.214050,167.391754 418.020142,164.251572 
z"/>
<path fill="#3154A9" opacity="1.000000" stroke="none" 
	d="
M317.444031,158.399658 
	C306.881622,169.588760 291.205017,168.025070 284.289001,155.323090 
	C280.271790,147.945099 280.684296,135.564545 290.462280,128.248627 
	C296.855682,123.465027 308.643280,124.151451 315.277863,130.142365 
	C322.493347,136.657852 324.003326,148.115311 318.740845,156.452225 
	C318.389221,157.009277 318.004791,157.545639 317.444031,158.399658 
z"/>
<path fill="#355BB7" opacity="1.000000" stroke="none" 
	d="
M303.964417,217.000046 
	C298.847961,217.000046 294.223114,217.000046 289.304718,217.000046 
	C289.304718,206.618988 289.304718,196.704208 289.304718,186.393982 
	C297.322266,186.393982 305.356262,186.393982 313.697876,186.393982 
	C313.697876,196.389221 313.697876,206.303757 313.697876,217.000046 
	C310.630890,217.000046 307.543457,217.000046 303.964417,217.000046 
z"/>
<path fill="#000000" opacity="1.000000" stroke="none" 
	d="
M374.870880,478.142365 
	C381.628479,487.213287 388.210327,495.967773 395.288300,505.382202 
	C385.649689,512.940857 376.248016,520.447205 366.636688,527.674744 
	C365.489471,528.537415 362.623291,528.641174 361.530334,527.811096 
	C351.399292,520.116272 341.482666,512.139160 331.587860,504.310516 
	C342.445953,489.488678 352.764954,475.402740 363.423584,460.853180 
	C367.141937,466.452301 370.918518,472.139130 374.870880,478.142365 
z"/>
<path fill="#000000" opacity="1.000000" stroke="none" 
	d="
M229.972336,470.960022 
	C232.225372,467.377563 234.398560,464.150269 236.658646,460.793915 
	C247.007233,475.077698 257.178223,489.116364 267.970551,504.012634 
	C258.153412,511.848572 247.807816,520.106262 236.980896,528.748230 
	C226.285843,519.980713 215.983994,511.535492 205.666946,503.077850 
	C214.131668,491.979553 222.012070,481.647369 229.972336,470.960022 
z"/>
</svg>