<svg width="33" height="17" viewBox="0 0 33 17" fill="none" xmlns="http://www.w3.org/2000/svg">
<path d="M2 16L0.5 12L2 6L9 2L18 1L28.5 4L32.5 10L30.5 16L23.5 13.5L23 8L17 6.5L10 8L9.5 13.5L2 16Z" fill="#424350"/>
<path d="M16.5 5.94018e-09C7.33668 5.94018e-09 0.0920107 4.34996 0.00681798 9.90679C-0.033559 11.335 0.105533 12.7625 0.420612 14.1537C0.747069 15.4118 1.29367 16.2353 2.09262 16.6716C2.50323 16.8932 2.96067 17.006 3.42386 16.9998C3.96181 16.9876 4.49398 16.8822 4.99814 16.6879L8.27308 15.5062C9.03686 15.2779 9.69842 14.7789 10.1416 14.0967C10.5848 13.4145 10.7812 12.5928 10.6964 11.7758L10.54 8.71359C10.5357 8.64259 10.5558 8.5723 10.5968 8.51509C10.6377 8.45788 10.6968 8.41742 10.7637 8.40081C12.6456 7.95868 14.5701 7.73939 16.5 7.74717C18.4298 7.73942 20.3543 7.95865 22.2362 8.40064C22.3032 8.41734 22.3623 8.45791 22.4032 8.51521C22.4442 8.57251 22.4642 8.64289 22.4599 8.71396L22.3035 11.7731C22.2183 12.5905 22.4146 13.4127 22.8577 14.0955C23.3009 14.7782 23.9627 15.2778 24.7269 15.5064L28.0011 16.6877C29.1655 17.1087 30.1162 17.1041 30.907 16.6718C31.7056 16.2357 32.2529 15.412 32.579 14.1543C32.8945 12.7616 33.0337 11.3325 32.9931 9.90273C32.9079 4.34958 25.6633 -0.000185608 16.5 5.94018e-09ZM30.8089 13.6634C30.6245 14.3744 30.3693 14.8231 30.0507 14.9972C29.74 15.1666 29.2539 15.1338 28.606 14.8997L25.3311 13.7183C24.9441 13.6227 24.606 13.38 24.3841 13.0387C24.1622 12.6973 24.0727 12.2822 24.1334 11.8757L24.2898 8.81423C24.3176 8.29859 24.1684 7.78936 23.8686 7.37621C23.5687 6.96306 23.1375 6.67248 22.6507 6.55565C20.6329 6.0811 18.5694 5.84542 16.5 5.85315C14.4306 5.84539 12.367 6.08113 10.3492 6.55583C9.86251 6.67256 9.43126 6.96304 9.13143 7.37609C8.83159 7.78915 8.68241 8.29829 8.71014 8.81386L8.86657 11.8785C8.92682 12.2845 8.83709 12.6991 8.6152 13.0399C8.39331 13.3808 8.05549 13.6229 7.66885 13.7181L4.3932 14.8999C3.74566 15.1338 3.25992 15.1666 2.94885 14.9972C2.63027 14.8231 2.37541 14.3744 2.1907 13.663C1.92132 12.4399 1.80333 11.1865 1.83955 9.93267C1.9072 5.50005 8.48391 1.89383 16.5 1.89402C24.516 1.89383 31.0927 5.50005 31.1604 9.92862C31.1969 11.1839 31.0787 12.4389 30.8089 13.6634Z" fill="#424350"/>
</svg>
