<svg width="19" height="10" viewBox="0 0 19 10" fill="none" xmlns="http://www.w3.org/2000/svg">
<path d="M1.09632 8.69502L0.274414 6.52127L1.09632 3.26064L4.9319 1.08689L9.86335 0.543457L15.6167 2.17377L17.8085 5.43439L16.7126 8.69502L12.877 7.33642L12.603 4.34752L9.31541 3.53236L5.47983 4.34752L5.20586 7.33642L1.09632 8.69502Z" fill="#EC221F"/>
<path d="M9.04097 3.22812e-09C4.02005 3.22812e-09 0.0504162 2.36393 0.00373584 5.38372C-0.0183883 6.15985 0.0578258 6.93564 0.23047 7.69166C0.409348 8.37537 0.70885 8.82287 1.14663 9.05999C1.37162 9.18042 1.62227 9.24169 1.87606 9.23831C2.17083 9.23172 2.46243 9.17444 2.73868 9.06884L4.53314 8.42664C4.95165 8.3026 5.31414 8.03141 5.55697 7.66069C5.7998 7.28997 5.90744 6.84341 5.861 6.39943L5.77528 4.73529C5.77294 4.69671 5.78395 4.65851 5.80637 4.62742C5.82879 4.59633 5.86119 4.57434 5.89787 4.56532C6.92903 4.32505 7.98352 4.20587 9.04097 4.2101C10.0984 4.20589 11.1529 4.32503 12.1841 4.56522C12.2208 4.5743 12.2532 4.59635 12.2756 4.62749C12.298 4.65863 12.309 4.69687 12.3067 4.73549L12.221 6.39793C12.1743 6.84213 12.2818 7.28899 12.5246 7.66001C12.7675 8.03104 13.1301 8.3025 13.5488 8.42674L15.3429 9.06874C15.9809 9.29751 16.5019 9.295 16.9351 9.06009C17.3727 8.82308 17.6726 8.37548 17.8513 7.69197C18.0242 6.93514 18.1005 6.15849 18.0782 5.38152C18.0315 2.36373 14.0619 -0.000100866 9.04097 3.22812e-09ZM16.8814 7.4252C16.7804 7.81159 16.6405 8.05543 16.466 8.15002C16.2957 8.24209 16.0294 8.2243 15.6743 8.09704L13.8799 7.45505C13.6678 7.40307 13.4826 7.27122 13.361 7.08571C13.2394 6.90019 13.1904 6.67459 13.2236 6.45371L13.3093 4.78998C13.3245 4.50977 13.2428 4.23303 13.0785 4.00851C12.9142 3.78399 12.6779 3.62608 12.4112 3.56258C11.3056 3.3047 10.1749 3.17662 9.04097 3.18082C7.90706 3.1766 6.77637 3.30471 5.67074 3.56268C5.40405 3.62612 5.16775 3.78398 5.00346 4.00845C4.83917 4.23292 4.75743 4.5096 4.77263 4.78978L4.85834 6.45522C4.89135 6.67588 4.84219 6.90119 4.7206 7.0864C4.59902 7.27161 4.41392 7.40317 4.20206 7.45495L2.40721 8.09715C2.05239 8.2243 1.78623 8.24209 1.61579 8.15002C1.44123 8.05543 1.30158 7.81159 1.20037 7.42499C1.05277 6.76033 0.988114 6.07915 1.00796 5.39779C1.04503 2.98894 4.64867 1.02918 9.04097 1.02928C13.4333 1.02918 17.0369 2.98894 17.074 5.39558C17.094 6.07775 17.0293 6.75976 16.8814 7.4252Z" fill="#EC221F"/>
</svg>
