<svg width="17" height="16" viewBox="0 0 17 16" fill="none" xmlns="http://www.w3.org/2000/svg">
<mask id="path-1-inside-1_220_226" fill="white">
<path d="M14.2969 0C15.4014 2.117e-05 16.2969 0.895444 16.2969 2V9.75488C16.2969 10.8594 15.4014 11.7549 14.2969 11.7549H6.08008L1.69727 15.625C1.05381 16.1931 0.0404929 15.7401 0.0351562 14.8818L0.0166016 11.7549H0V2C0 0.895431 0.895431 0 2 0H14.2969Z"/>
</mask>
<path d="M14.2969 0L14.2969 -2H14.2969V0ZM16.2969 2H18.2969H16.2969ZM16.2969 9.75488L18.2969 9.75489V9.75488H16.2969ZM14.2969 11.7549V13.7549H14.2969L14.2969 11.7549ZM6.08008 11.7549V9.75488C5.59251 9.75488 5.12174 9.93298 4.75627 10.2557L6.08008 11.7549ZM1.69727 15.625L3.02102 17.1242L3.02107 17.1242L1.69727 15.625ZM0.0351562 14.8818L-1.96481 14.8937L-1.96481 14.8943L0.0351562 14.8818ZM0.0166016 11.7549L2.01657 11.743C2.01004 10.6431 1.11654 9.75488 0.0166016 9.75488V11.7549ZM0 11.7549H-2C-2 12.8595 -1.10457 13.7549 0 13.7549L0 11.7549ZM14.2969 0L14.2968 2H14.2969H16.2969H18.2969C18.2969 -0.209164 16.506 -1.99996 14.2969 -2L14.2969 0ZM16.2969 2H14.2969V9.75488H16.2969H18.2969V2H16.2969ZM16.2969 9.75488L14.2969 9.75488L14.2968 9.75488L14.2969 11.7549L14.2969 13.7549C16.506 13.7548 18.2969 11.964 18.2969 9.75489L16.2969 9.75488ZM14.2969 11.7549V9.75488H6.08008V11.7549V13.7549H14.2969V11.7549ZM6.08008 11.7549L4.75627 10.2557L0.373459 14.1258L1.69727 15.625L3.02107 17.1242L7.40388 13.2541L6.08008 11.7549ZM1.69727 15.625L0.373512 14.1258C1.01607 13.5584 2.02977 14.0099 2.03512 14.8694L0.0351562 14.8818L-1.96481 14.8943C-1.94879 17.4703 1.09155 18.8279 3.02102 17.1242L1.69727 15.625ZM0.0351562 14.8818L2.03512 14.87L2.01657 11.743L0.0166016 11.7549L-1.98336 11.7668L-1.96481 14.8937L0.0351562 14.8818ZM0.0166016 11.7549V9.75488H0V11.7549V13.7549H0.0166016V11.7549ZM0 11.7549H2V2H0H-2V11.7549H0ZM0 2H2V0V-2C-0.209139 -2 -2 -0.209139 -2 2H0ZM2 0V2H14.2969V0V-2H2V0Z" fill="white" mask="url(#path-1-inside-1_220_226)"/>
<path d="M4.44434 4.40796H11.852" stroke="white" stroke-width="2" stroke-linecap="round" stroke-linejoin="round"/>
<path d="M4.44434 7.34668H8.14864" stroke="white" stroke-width="2" stroke-linecap="round" stroke-linejoin="round"/>
</svg>
