<svg width="14" height="20" viewBox="0 0 14 20" fill="none" xmlns="http://www.w3.org/2000/svg">
<path d="M11.6358 4.30163C11.4291 4.30163 11.2248 4.33659 11.03 4.40418V3.10827C11.0307 2.12001 10.2175 1.319 9.21483 1.31823C8.98449 1.31823 8.75652 1.36096 8.54274 1.44487C8.27848 0.490792 7.27981 -0.0716996 6.31107 0.188573C5.69026 0.355612 5.20511 0.833426 5.03552 1.44487C4.10311 1.07972 3.04684 1.52877 2.67682 2.44634C2.59163 2.65688 2.54824 2.88142 2.54824 3.10827V6.79099C1.60163 6.46158 0.563523 6.95026 0.229126 7.8818C0.160497 8.0737 0.125 8.27494 0.125 8.47849V12.6553C0.125 16.2805 3.10831 19.2188 6.78912 19.2188C10.4699 19.2188 13.4532 16.2805 13.4532 12.6553V6.09176C13.4517 5.1035 12.6392 4.3024 11.6358 4.30163ZM12.2416 12.6552C12.2416 15.6207 9.80012 18.0253 6.78915 18.0253C3.77818 18.0253 1.33669 15.6207 1.33669 12.6552V8.4784C1.33669 8.14899 1.60806 7.88172 1.94252 7.88172C2.27697 7.88172 2.54835 8.14899 2.54835 8.4784V12.6552C2.54835 12.9846 2.81972 13.2518 3.15417 13.2518C3.48863 13.2518 3.76 12.9846 3.76 12.6552V3.10827C3.76 2.77886 4.03138 2.51158 4.36583 2.51158C4.70029 2.51158 4.97166 2.77886 4.97166 3.10827V9.07508C4.97166 9.40449 5.24303 9.67176 5.57749 9.67176C5.91195 9.67176 6.18332 9.40449 6.18332 9.07508V1.9149C6.18332 1.5855 6.45469 1.31822 6.78915 1.31822C7.12361 1.31822 7.39498 1.5855 7.39498 1.9149V9.07508C7.39498 9.40449 7.66635 9.67176 8.00081 9.67176C8.33527 9.67176 8.60664 9.40449 8.60664 9.07508V3.10827C8.60664 2.77886 8.87801 2.51158 9.21247 2.51158C9.54693 2.51158 9.8183 2.77886 9.8183 3.10827V9.07508C9.8183 9.40449 10.0897 9.67176 10.4241 9.67176C10.7586 9.67176 11.03 9.40449 11.03 9.07508V6.09167C11.03 5.76227 11.3013 5.49499 11.6358 5.49499C11.9702 5.49499 12.2416 5.76227 12.2416 6.09167V12.6552Z" fill="white" stroke="#F5F5F5" stroke-width="0.25"/>
</svg>
