<?xml version="1.0" standalone="no"?><!DOCTYPE svg PUBLIC "-//W3C//DTD SVG 1.1//EN" "http://www.w3.org/Graphics/SVG/1.1/DTD/svg11.dtd"><svg class="icon" width="200px" height="200.00px" viewBox="0 0 1024 1024" version="1.1" xmlns="http://www.w3.org/2000/svg"><path d="M209.536 179.456c-19.2-19.2-49.493333 11.093333-30.293333 30.293333l13.653333 13.653334v0.426666A454.229333 454.229333 0 0 0 236.416 844.8c20.48 18.346667 50.773333-11.946667 30.293333-30.293333a410.581333 410.581333 0 0 1-43.093333-560.213334l96.853333 96.853334a256.938667 256.938667 0 0 0 26.026667 349.013333c20.48 18.773333 50.773333-11.52 30.293333-29.866667a214.357333 214.357333 0 0 1-26.026666-288.853333l111.36 111.36a48.213333 48.213333 0 0 0-3.84 19.2 53.248 53.248 0 0 0 53.333333 52.906667 48.213333 48.213333 0 0 0 19.2-3.84l203.52 203.52 36.693333 36.693333a129.024 129.024 0 0 1-13.226666 13.226667 15.146667 15.146667 0 0 0-4.693334 6.826666 17.322667 17.322667 0 0 0-1.706666 8.106667 16.256 16.256 0 0 0 1.706666 8.106667 16.469333 16.469333 0 0 0 4.693334 7.253333 21.333333 21.333333 0 0 0 14.933333 5.973333 24.96 24.96 0 0 0 5.546667-0.853333 18.432 18.432 0 0 0 9.386666-5.12c4.693333-4.266667 9.386667-8.533333 13.653334-12.8 4.266667 3.84 8.106667 8.106667 12.373333 12.373333 19.2 19.2 49.493333-11.093333 30.293333-30.293333zM756.48 209.408a410.624 410.624 0 0 1 98.133333 473.6c-11.306667 24.832 25.6 46.506667 36.864 21.546667A454.272 454.272 0 0 0 786.688 179.2c-20.266667-18.474667-50.56 11.605333-30.208 30.165333zM646.4 353.749333a214.016 214.016 0 0 1 68.266667 195.072 21.973333 21.973333 0 0 0 14.890666 26.24 21.333333 21.333333 0 0 0 26.24-14.890666 257.792 257.792 0 0 0-79.018666-236.629334c-20.309333-18.389333-50.56 11.690667-30.208 30.208z" fill="#1E1E23" /></svg>