<?xml version="1.0" standalone="no"?><!DOCTYPE svg PUBLIC "-//W3C//DTD SVG 1.1//EN" "http://www.w3.org/Graphics/SVG/1.1/DTD/svg11.dtd"><svg class="icon" width="200px" height="200.00px" viewBox="0 0 1024 1024" version="1.1" xmlns="http://www.w3.org/2000/svg"><path d="M267.093333 814.464a410.666667 410.666667 0 0 1-1.109333-604.928C286.250667 190.933333 256 160.810667 235.818667 179.2a448.682667 448.682667 0 0 0 1.109333 665.6c20.266667 18.474667 50.517333-11.648 30.165333-30.165333z" fill="#1E1E23" /><path d="M377.173333 670.122667a214.357333 214.357333 0 0 1-0.597333-316.245334c20.224-18.645333-9.984-48.768-30.165333-30.165333a257.194667 257.194667 0 0 0 0.597333 376.576c20.224 18.517333 50.474667-11.605333 30.165333-30.165333z" fill="#1E1E23" /><path d="M512 512m-53.077333 0a53.077333 53.077333 0 1 0 106.154666 0 53.077333 53.077333 0 1 0-106.154666 0Z" fill="#1E1E23" /><path d="M756.906667 209.536a410.666667 410.666667 0 0 1 1.109333 604.928c-20.266667 18.602667 9.984 48.725333 30.165333 30.165333A448.682667 448.682667 0 0 0 787.072 179.2c-20.266667-18.474667-50.517333 11.648-30.165333 30.165333z" fill="#1E1E23" /><path d="M646.826667 353.877333a214.357333 214.357333 0 0 1 0.597333 316.245334c-20.224 18.645333 9.984 48.768 30.165333 30.165333a257.194667 257.194667 0 0 0-0.597333-376.576c-20.224-18.517333-50.474667 11.605333-30.165333 30.165333z" fill="#1E1E23" /></svg>